<?xml version="1.0" standalone="no"?>
<!DOCTYPE svg PUBLIC "-//W3C//DTD SVG 20010904//EN"
 "http://www.w3.org/TR/2001/REC-SVG-20010904/DTD/svg10.dtd">
<svg version="1.0" xmlns="http://www.w3.org/2000/svg"
 width="700.000000pt" height="700.000000pt" viewBox="0 0 700.000000 700.000000"
 preserveAspectRatio="xMidYMid meet">
<metadata>
Created by potrace 1.11, written by Peter Selinger 2001-2013
</metadata>
<g transform="translate(0.000000,700.000000) scale(0.100000,-0.100000)"
fill="#000000" stroke="none">
<path d="M1201 6289 c-42 -9 -79 -34 -101 -72 -20 -31 -20 -63 -20 -1598 0
-1008 4 -1585 10 -1620 6 -30 12 -65 15 -78 27 -143 187 -444 356 -670 134
-181 235 -296 417 -478 82 -81 116 -113 232 -213 304 -265 749 -560 1145 -758
194 -97 188 -95 278 -94 104 1 92 -2 222 64 303 153 723 419 930 590 11 9 52
42 90 73 184 149 433 391 577 560 183 215 342 454 449 672 61 126 74 163 99
273 19 82 19 144 20 1666 l0 1581 -22 33 c-13 19 -38 43 -57 54 -34 20 -53 20
-2322 20 -1259 1 -2302 -2 -2318 -5z m4339 -389 c9 -23 4 -2808 -4 -2860 -23
-137 -181 -428 -359 -660 -173 -225 -370 -424 -658 -666 -124 -104 -416 -307
-604 -420 -159 -96 -359 -204 -378 -204 -15 0 -203 95 -317 160 -41 23 -95 54
-120 68 -156 88 -453 295 -635 441 -163 132 -181 148 -341 306 -217 216 -369
405 -501 625 -100 167 -145 270 -159 365 -7 47 -13 2813 -6 2845 3 13 237 15
2040 15 1813 0 2038 -1 2042 -15z"/>
<path d="M3265 4870 c-410 -71 -753 -305 -968 -660 -80 -132 -153 -325 -172
-451 -4 -24 -9 -47 -12 -52 -10 -16 -12 -302 -2 -372 14 -113 17 -126 43 -215
210 -724 948 -1147 1681 -965 181 45 378 145 527 266 293 240 481 595 512 969
3 36 8 99 12 142 l7 76 -646 0 c-463 -1 -647 -4 -649 -12 -2 -6 -4 -101 -3
-211 l0 -200 393 -3 392 -2 -21 -52 c-11 -28 -36 -78 -55 -111 -136 -231 -338
-385 -596 -451 -126 -32 -340 -31 -463 3 -93 26 -219 83 -292 132 -179 121
-322 314 -383 519 -31 104 -34 126 -34 290 0 120 3 160 23 234 13 50 27 97 31
105 5 9 18 38 30 64 62 136 194 291 319 376 85 58 213 117 308 143 122 33 337
34 466 2 146 -36 306 -116 396 -200 14 -13 29 -24 34 -24 7 0 48 41 230 235
31 33 57 64 57 69 0 29 -209 175 -345 240 -254 121 -550 163 -820 116z"/>
</g>
</svg>
